<svg xmlns="http://www.w3.org/2000/svg" width="375" viewBox="0 0 375 375" height="375" version="1.0"><defs><clipPath id="a"><path d="M 43.480469 4 L 331.480469 4 L 331.480469 374.996094 L 43.480469 374.996094 Z M 43.480469 4"/></clipPath><clipPath id="b"><path d="M 295 264 L 375 264 L 375 337.6875 L 295 337.6875 Z M 295 264"/></clipPath><clipPath id="c"><path d="M 0 264 L 80 264 L 80 337.6875 L 0 337.6875 Z M 0 264"/></clipPath><clipPath id="d"><path d="M 132 184.6875 L 133 184.6875 L 133 185 L 132 185 Z M 132 184.6875"/></clipPath><clipPath id="e"><path d="M 125.609375 299 L 249.359375 299 L 249.359375 337.222656 L 125.609375 337.222656 Z M 125.609375 299"/></clipPath><clipPath id="f"><path d="M 144.742188 115.925781 L 167.929688 115.925781 L 167.929688 126.253906 L 144.742188 126.253906 Z M 144.742188 115.925781"/></clipPath><clipPath id="g"><path d="M 136.847656 100.753906 L 175.828125 100.753906 L 175.828125 119.921875 L 136.847656 119.921875 Z M 136.847656 100.753906"/></clipPath></defs><path fill="#FFF" d="M 187.480469 11.460938 L 56.394531 134.871094 L 83.9375 345.824219 L 187.976562 368.367188 L 291.027344 345.824219 L 318.566406 134.871094 Z M 187.480469 11.460938" fill-rule="evenodd"/><g clip-path="url(#a)"><path fill="#35003D" d="M 187.480469 13.605469 L 58.046875 135.464844 L 85.34375 344.527344 L 187.976562 366.765625 L 289.625 344.53125 L 316.917969 135.464844 Z M 188.125 4.152344 L 331.480469 134.28125 L 292.574219 346.027344 L 292.429688 347.117188 L 291.355469 347.351562 L 187.753906 374.53125 L 83.609375 347.351562 L 82.535156 347.121094 L 82.390625 346.027344 L 43.480469 134.28125 Z M 188.125 4.152344"/></g><path fill="#35003D" d="M 288.574219 311.710938 L 285.6875 341.574219 L 188.003906 361.980469 L 90.324219 341.574219 L 87.433594 311.710938 L 92.667969 339.304688 L 188.003906 356.460938 L 283.339844 339.304688 Z M 288.574219 311.710938" fill-rule="evenodd"/><path fill="#35003D" d="M 288.574219 299.703125 L 311.054688 137.429688 L 188.003906 24.011719 L 64.957031 136.359375 L 87.433594 299.703125 L 70.851562 136.859375 L 188.003906 31.660156 L 305.867188 138.988281 Z M 288.574219 299.703125" fill-rule="evenodd"/><g clip-path="url(#b)"><path fill="#35003D" d="M 318.664062 312.167969 L 318.621094 312.234375 C 318.550781 312.382812 318.457031 312.511719 318.351562 312.636719 L 318.28125 312.734375 C 318.132812 312.875 317.964844 312.984375 317.773438 313.066406 L 317.742188 313.089844 C 317.621094 313.140625 317.488281 313.171875 317.347656 313.195312 L 317.308594 313.203125 L 295.199219 316.027344 C 309.996094 321.652344 331.882812 330.695312 345.074219 337.550781 C 346.804688 330.996094 346.929688 312.238281 346.542969 300.117188 C 346.527344 299.441406 346.902344 298.816406 347.511719 298.523438 C 353.925781 295.445312 370.203125 286.933594 375.003906 281.640625 C 363.121094 275.339844 350.878906 269.632812 338.375 264.53125 L 318.664062 312.167969"/></g><path fill="#35003D" d="M 292.042969 304.050781 L 290.25 313.226562 L 310.375 310.660156 C 304.3125 308.277344 298.203125 306.070312 292.042969 304.050781"/><g clip-path="url(#c)"><path fill="#35003D" d="M 57.441406 313.128906 C 57.273438 313.183594 57.109375 313.21875 56.9375 313.21875 C 56.273438 313.21875 55.640625 312.824219 55.363281 312.167969 L 35.796875 264.859375 C 23.574219 269.878906 11.617188 275.480469 0 281.640625 C 4.789062 286.933594 21.070312 295.445312 27.488281 298.523438 C 28.089844 298.816406 28.472656 299.441406 28.449219 300.117188 C 28.070312 312.238281 28.195312 330.996094 29.925781 337.550781 C 43.117188 330.695312 65 321.65625 79.800781 316.027344 L 57.691406 313.203125 L 57.441406 313.128906"/></g><path fill="#35003D" d="M 63.894531 310.566406 L 84.75 313.226562 L 82.898438 303.761719 C 76.515625 305.835938 70.175781 308.101562 63.894531 310.566406"/><path fill="#35003D" d="M 340.410156 250.703125 C 291.496094 230.65625 239.894531 220.488281 187.015625 220.488281 C 134.132812 220.488281 82.535156 230.65625 33.617188 250.703125 L 57.859375 309.292969 C 99.046875 292.449219 142.492188 283.90625 187.015625 283.90625 C 231.535156 283.90625 274.980469 292.449219 316.171875 309.292969 L 340.410156 250.703125"/><g clip-path="url(#d)"><path fill="#35003D" d="M 132.714844 184.859375 L 132.714844 184.851562 L 132.71875 184.824219 Z M 132.714844 184.859375"/></g><g clip-path="url(#e)"><path fill="#35003D" d="M 131.535156 318.613281 L 136.621094 323.273438 L 142.835938 321.15625 L 139.945312 327.394531 L 143.890625 332.617188 L 137.019531 331.816406 L 133.242188 337.152344 L 131.886719 330.417969 L 125.609375 328.5 L 131.636719 325.136719 Z M 187.46875 299.011719 L 191.519531 308.003906 L 200.914062 308.710938 L 193.546875 315.3125 L 195.777344 324.40625 L 187.175781 319.492188 L 179.164062 324.40625 L 181.207031 314.765625 L 174.027344 308.710938 L 183.890625 307.664062 Z M 215.824219 310.039062 L 211.796875 315.621094 L 205.277344 314.804688 L 209.378906 320.332031 L 206.582031 326.238281 L 213.148438 324.070312 L 217.933594 328.539062 L 217.890625 321.671875 L 223.644531 318.527344 L 217.054688 316.445312 Z M 243.40625 318.613281 L 238.320312 323.273438 L 232.101562 321.15625 L 234.992188 327.394531 L 231.046875 332.617188 L 237.917969 331.816406 L 241.695312 337.15625 L 243.050781 330.417969 L 249.328125 328.5 L 243.296875 325.136719 Z M 159.113281 310.039062 L 163.140625 315.621094 L 169.65625 314.804688 L 165.554688 320.332031 L 168.355469 326.238281 L 161.789062 324.070312 L 157.003906 328.539062 L 157.046875 321.671875 L 151.292969 318.527344 L 157.882812 316.445312 Z M 159.113281 310.039062" fill-rule="evenodd"/></g><g clip-path="url(#f)"><path fill="#35003D" d="M 157.578125 120.914062 C 156.792969 121.289062 155.882812 121.289062 155.097656 120.914062 L 144.753906 115.941406 L 144.753906 121.8125 C 144.753906 124.265625 149.941406 126.253906 156.335938 126.253906 C 162.734375 126.253906 167.921875 124.265625 167.921875 121.8125 L 167.921875 115.941406 L 157.578125 120.914062"/></g><g clip-path="url(#g)"><path fill="#35003D" d="M 175.355469 109.578125 L 157.578125 101.035156 C 157.183594 100.847656 156.761719 100.753906 156.335938 100.753906 C 155.914062 100.753906 155.492188 100.847656 155.097656 101.035156 L 137.320312 109.578125 C 136.6875 109.882812 136.6875 110.78125 137.320312 111.085938 L 155.097656 119.625 C 155.492188 119.8125 155.914062 119.90625 156.335938 119.90625 C 156.761719 119.90625 157.183594 119.8125 157.578125 119.625 L 175.355469 111.085938 C 175.988281 110.78125 175.988281 109.882812 175.355469 109.578125"/></g><path fill="#35003D" d="M 172.121094 117.535156 C 172.480469 117.359375 172.722656 116.996094 172.722656 116.570312 C 172.722656 116.085938 172.402344 115.675781 171.957031 115.542969 L 171.957031 112.757812 C 171.957031 112.746094 171.953125 112.734375 171.949219 112.71875 L 171.316406 113.023438 C 171.324219 113.054688 171.328125 113.082031 171.328125 113.113281 L 171.324219 115.542969 C 170.882812 115.679688 170.5625 116.085938 170.5625 116.570312 C 170.5625 117.019531 170.835938 117.402344 171.226562 117.566406 L 170.089844 122.277344 C 170.015625 122.59375 170.253906 122.894531 170.582031 122.894531 L 172.773438 122.894531 C 173.101562 122.894531 173.339844 122.59375 173.265625 122.277344 L 172.121094 117.535156"/><g fill="#FFF"><g><g><path d="M 16.5625 -4.53125 C 12.03125 -3.09375 8.0625 -3.316406 4.65625 -5.203125 C 1.257812 -7.097656 -1.222656 -10.53125 -2.796875 -15.5 C -3.828125 -18.75 -4.144531 -21.71875 -3.75 -24.40625 C -3.363281 -27.101562 -2.347656 -29.375 -0.703125 -31.21875 C 0.929688 -33.0625 3.078125 -34.398438 5.734375 -35.234375 C 7.359375 -35.742188 9.140625 -35.796875 11.078125 -35.390625 C 11.804688 -35.242188 12.578125 -34.984375 13.390625 -34.609375 C 13.628906 -35.492188 13.929688 -36.226562 14.296875 -36.8125 C 14.703125 -37.363281 14.925781 -37.65625 14.96875 -37.6875 L 16.03125 -38.03125 L 18.578125 -29.953125 L 16.890625 -29.40625 C 16.085938 -30.644531 15.140625 -31.707031 14.046875 -32.59375 C 13.035156 -33.445312 11.914062 -34.070312 10.6875 -34.46875 C 9.457031 -34.863281 8.191406 -34.859375 6.890625 -34.453125 C 4.929688 -33.828125 3.664062 -32.175781 3.09375 -29.5 C 2.53125 -26.820312 3.050781 -22.9375 4.65625 -17.84375 C 6.300781 -12.644531 8.171875 -9.15625 10.265625 -7.375 C 12.367188 -5.601562 14.632812 -5.101562 17.0625 -5.875 C 18.40625 -6.300781 19.5625 -7.078125 20.53125 -8.203125 C 21.5 -9.328125 22.160156 -10.628906 22.515625 -12.109375 C 22.867188 -13.597656 22.828125 -15.035156 22.390625 -16.421875 L 23.453125 -16.765625 C 23.960938 -15.148438 24.007812 -13.503906 23.59375 -11.828125 C 23.175781 -10.148438 22.351562 -8.65625 21.125 -7.34375 C 19.894531 -6.039062 18.375 -5.101562 16.5625 -4.53125 Z M 16.5625 -4.53125" transform="translate(56.867 291.539)"/></g></g></g><g fill="#FFF"><g><g><path d="M 2.015625 -1.1875 L 4.4375 -2.484375 L -2.4375 -30.1875 L -5.1875 -30.15625 L -5.34375 -30.8125 L 6.984375 -33.875 L 7.140625 -33.21875 L 4.703125 -31.953125 L 11.640625 -4.03125 L 20.9375 -6.34375 C 20.476562 -8.164062 20.515625 -9.96875 21.046875 -11.75 C 21.285156 -12.519531 21.625 -13.191406 22.0625 -13.765625 L 23.375 -14.078125 L 25.3125 -6.28125 L 2.171875 -0.53125 Z M 2.015625 -1.1875" transform="translate(83.633 283.082)"/></g></g></g><g fill="#FFF"><g><g><path d="M 17.453125 -2.46875 C 13.128906 -1.6875 9.671875 -2.109375 7.078125 -3.734375 C 4.484375 -5.367188 2.859375 -8.03125 2.203125 -11.71875 L -1.109375 -30.15625 L -3.875 -30.328125 L -4 -30.984375 L 8.515625 -33.234375 L 8.640625 -32.578125 L 6.125 -31.453125 L 9.4375 -13.015625 C 10.113281 -9.242188 11.179688 -6.65625 12.640625 -5.25 C 14.109375 -3.84375 15.9375 -3.335938 18.125 -3.734375 C 19.46875 -3.972656 20.664062 -4.628906 21.71875 -5.703125 C 22.78125 -6.785156 23.539062 -8.191406 24 -9.921875 C 24.46875 -11.648438 24.515625 -13.566406 24.140625 -15.671875 L 20.9375 -33.4375 L 17.1875 -34.109375 L 17.0625 -34.765625 L 25.390625 -36.265625 L 25.515625 -35.609375 L 22.25 -33.671875 L 25.453125 -15.90625 C 25.878906 -13.53125 25.8125 -11.382812 25.25 -9.46875 C 24.6875 -7.5625 23.726562 -6.003906 22.375 -4.796875 C 21.019531 -3.585938 19.378906 -2.8125 17.453125 -2.46875 Z M 17.453125 -2.46875" transform="translate(109.081 276.653)"/></g></g></g><g fill="#FFF"><g><g><path d="M 2.140625 -0.921875 L 4.734375 -1.859375 L 1.625 -30.234375 L -1.109375 -30.59375 L -1.171875 -31.265625 L 10.796875 -32.5625 C 15.285156 -33.0625 18.664062 -32.707031 20.9375 -31.5 C 23.207031 -30.300781 24.46875 -28.550781 24.71875 -26.25 C 24.894531 -24.65625 24.578125 -23.316406 23.765625 -22.234375 C 22.953125 -21.160156 21.859375 -20.3125 20.484375 -19.6875 C 19.035156 -18.988281 17.441406 -18.535156 15.703125 -18.328125 L 15.734375 -18.09375 C 17.898438 -18.238281 19.804688 -18.117188 21.453125 -17.734375 C 23.140625 -17.367188 24.582031 -16.6875 25.78125 -15.6875 C 26.988281 -14.6875 27.6875 -13.316406 27.875 -11.578125 C 28.164062 -8.941406 27.3125 -6.757812 25.3125 -5.03125 C 23.320312 -3.300781 19.90625 -2.175781 15.0625 -1.65625 L 2.21875 -0.25 Z M 12.34375 -18.390625 C 13.3125 -18.503906 14.1875 -18.878906 14.96875 -19.515625 C 15.757812 -20.148438 16.359375 -20.988281 16.765625 -22.03125 C 17.171875 -23.082031 17.304688 -24.210938 17.171875 -25.421875 C 17.023438 -26.710938 16.640625 -27.832031 16.015625 -28.78125 C 15.390625 -29.726562 14.625 -30.441406 13.71875 -30.921875 C 12.8125 -31.398438 11.875 -31.582031 10.90625 -31.46875 L 8.90625 -31.25 L 10.34375 -18.171875 Z M 14.9375 -2.765625 C 16.769531 -2.960938 18.191406 -3.769531 19.203125 -5.1875 C 20.210938 -6.613281 20.59375 -8.46875 20.34375 -10.75 C 20.09375 -13.019531 19.320312 -14.742188 18.03125 -15.921875 C 16.738281 -17.097656 15.175781 -17.585938 13.34375 -17.390625 L 10.46875 -17.0625 L 12.0625 -2.4375 Z M 14.9375 -2.765625" transform="translate(139.249 271.215)"/></g></g></g><g fill="#FFF"><g><g><path d="M 8.117188 -4.628906 C 9.089844 -4.628906 10.03125 -4.832031 10.902344 -5.300781 C 11.773438 -5.734375 12.511719 -6.339844 13.148438 -7.144531 C 13.789062 -7.917969 14.289062 -8.824219 14.660156 -9.863281 C 15.027344 -10.902344 15.230469 -12.007812 15.230469 -13.21875 C 15.230469 -14.355469 15.027344 -15.464844 14.660156 -16.539062 C 14.289062 -17.578125 13.789062 -18.484375 13.148438 -19.253906 C 12.511719 -20.027344 11.773438 -20.628906 10.902344 -21.101562 C 10.03125 -21.570312 9.125 -21.804688 8.117188 -21.804688 C 7.113281 -21.804688 6.207031 -21.570312 5.332031 -21.132812 C 4.460938 -20.664062 3.691406 -20.058594 3.050781 -19.289062 C 2.414062 -18.484375 1.910156 -17.578125 1.542969 -16.539062 C 1.175781 -15.496094 1.007812 -14.390625 1.007812 -13.21875 C 1.007812 -12.007812 1.175781 -10.902344 1.542969 -9.863281 C 1.910156 -8.824219 2.414062 -7.917969 3.050781 -7.144531 C 3.691406 -6.339844 4.429688 -5.734375 5.300781 -5.300781 C 6.171875 -4.832031 7.113281 -4.628906 8.117188 -4.628906 Z M 8.117188 -7.984375 C 7.582031 -7.984375 7.113281 -8.117188 6.675781 -8.386719 C 6.207031 -8.65625 5.804688 -9.058594 5.46875 -9.527344 C 5.132812 -9.996094 4.863281 -10.535156 4.664062 -11.171875 C 4.460938 -11.808594 4.359375 -12.480469 4.359375 -13.21875 C 4.359375 -13.921875 4.460938 -14.59375 4.664062 -15.230469 C 4.863281 -15.867188 5.132812 -16.4375 5.46875 -16.90625 C 5.804688 -17.375 6.207031 -17.746094 6.675781 -18.015625 C 7.113281 -18.28125 7.582031 -18.449219 8.117188 -18.449219 C 8.585938 -18.449219 9.058594 -18.28125 9.527344 -18.015625 C 9.996094 -17.746094 10.398438 -17.375 10.734375 -16.90625 C 11.070312 -16.4375 11.371094 -15.867188 11.574219 -15.230469 C 11.773438 -14.59375 11.875 -13.921875 11.875 -13.21875 C 11.875 -12.480469 11.773438 -11.808594 11.574219 -11.171875 C 11.371094 -10.535156 11.101562 -9.996094 10.769531 -9.527344 C 10.433594 -9.058594 10.03125 -8.65625 9.558594 -8.386719 C 9.089844 -8.117188 8.621094 -7.984375 8.117188 -7.984375 Z M 1.578125 0 L 14.660156 0 C 14.792969 0 14.925781 -0.0351562 15.0625 -0.167969 C 15.164062 -0.269531 15.230469 -0.402344 15.230469 -0.570312 L 15.230469 -2.046875 C 15.230469 -2.179688 15.164062 -2.316406 15.0625 -2.449219 C 14.925781 -2.550781 14.792969 -2.617188 14.660156 -2.617188 L 1.578125 -2.617188 C 1.410156 -2.617188 1.273438 -2.550781 1.175781 -2.449219 C 1.039062 -2.316406 1.007812 -2.179688 1.007812 -2.046875 L 1.007812 -0.570312 C 1.007812 -0.402344 1.039062 -0.269531 1.175781 -0.167969 C 1.273438 -0.0351562 1.410156 0 1.578125 0 Z M 1.578125 0" transform="translate(187.5 261.591)"/></g></g></g><g fill="#FFF"><g><g><path d="M 2.246094 0 L 5.332031 0 C 5.46875 0 5.601562 -0.0351562 5.734375 -0.167969 C 5.835938 -0.269531 5.902344 -0.402344 5.902344 -0.605469 C 5.902344 -0.671875 5.871094 -0.703125 5.871094 -0.773438 L 5.5 -1.777344 C 5.46875 -1.8125 5.46875 -1.878906 5.46875 -1.945312 L 5.46875 -10.0625 C 5.46875 -10.199219 5.5 -10.296875 5.601562 -10.398438 C 5.703125 -10.5 5.835938 -10.566406 5.972656 -10.566406 L 10.097656 -10.566406 C 10.164062 -10.566406 10.230469 -10.535156 10.296875 -10.535156 L 11.304688 -10.164062 C 11.472656 -10.097656 11.640625 -10.097656 11.808594 -10.230469 C 11.941406 -10.332031 12.042969 -10.5 12.042969 -10.699219 L 12.042969 -13.789062 C 12.042969 -14.15625 11.839844 -14.355469 11.507812 -14.355469 C 11.40625 -14.355469 11.339844 -14.324219 11.304688 -14.324219 L 10.296875 -13.953125 C 10.230469 -13.921875 10.164062 -13.921875 10.097656 -13.921875 L 5.972656 -13.921875 C 5.835938 -13.921875 5.703125 -13.953125 5.601562 -14.054688 C 5.5 -14.15625 5.46875 -14.289062 5.46875 -14.425781 L 5.46875 -17.878906 C 5.46875 -18.015625 5.5 -18.148438 5.601562 -18.28125 C 5.703125 -18.382812 5.835938 -18.449219 6.039062 -18.449219 L 12.3125 -18.449219 C 12.378906 -18.449219 12.445312 -18.417969 12.511719 -18.417969 L 13.550781 -18.046875 C 13.71875 -17.980469 13.886719 -17.980469 14.054688 -18.113281 C 14.191406 -18.214844 14.289062 -18.347656 14.289062 -18.550781 L 14.289062 -21.234375 C 14.289062 -21.367188 14.222656 -21.503906 14.121094 -21.636719 C 13.988281 -21.738281 13.855469 -21.804688 13.71875 -21.804688 L 2.113281 -21.804688 L 2.113281 -21.769531 C 1.8125 -21.703125 1.675781 -21.503906 1.675781 -21.234375 C 1.675781 -21.132812 1.675781 -21.066406 1.710938 -21.03125 L 2.078125 -20.027344 C 2.078125 -19.960938 2.078125 -19.925781 2.078125 -19.925781 C 2.078125 -19.890625 2.113281 -19.859375 2.113281 -19.859375 L 2.113281 -1.945312 C 2.113281 -1.910156 2.078125 -1.878906 2.078125 -1.878906 C 2.078125 -1.84375 2.078125 -1.8125 2.078125 -1.777344 L 1.710938 -0.773438 C 1.644531 -0.570312 1.644531 -0.402344 1.777344 -0.234375 C 1.878906 -0.0664062 2.046875 0 2.246094 0 Z M 2.246094 0" transform="translate(203.735 261.591)"/></g></g></g><g fill="#FFF"><g><g><path d="M 16.09375 4.0625 C 11.59375 3.113281 8.359375 1.039062 6.390625 -2.15625 C 4.429688 -5.363281 3.972656 -9.429688 5.015625 -14.359375 C 5.703125 -17.585938 6.847656 -20.242188 8.453125 -22.328125 C 10.066406 -24.410156 12.003906 -25.835938 14.265625 -26.609375 C 16.523438 -27.378906 18.972656 -27.484375 21.609375 -26.921875 C 23.210938 -26.585938 24.734375 -25.785156 26.171875 -24.515625 C 26.722656 -24.046875 27.25 -23.457031 27.75 -22.75 C 28.382812 -23.375 29 -23.84375 29.59375 -24.15625 C 30.175781 -24.425781 30.492188 -24.570312 30.546875 -24.59375 L 31.609375 -24.375 L 29.90625 -16.359375 L 28.21875 -16.703125 C 28.132812 -18.128906 27.847656 -19.472656 27.359375 -20.734375 C 26.910156 -21.941406 26.257812 -23.003906 25.40625 -23.921875 C 24.550781 -24.835938 23.476562 -25.4375 22.1875 -25.71875 C 20.25 -26.125 18.398438 -25.332031 16.640625 -23.34375 C 14.890625 -21.363281 13.476562 -17.847656 12.40625 -12.796875 C 11.320312 -7.648438 11.238281 -3.820312 12.15625 -1.3125 C 13.082031 1.1875 14.753906 2.691406 17.171875 3.203125 C 18.492188 3.484375 19.832031 3.378906 21.1875 2.890625 C 22.539062 2.398438 23.722656 1.613281 24.734375 0.53125 C 25.742188 -0.550781 26.394531 -1.78125 26.6875 -3.15625 L 27.734375 -2.9375 C 27.390625 -1.332031 26.640625 0.0703125 25.484375 1.28125 C 24.328125 2.5 22.921875 3.363281 21.265625 3.875 C 19.617188 4.382812 17.894531 4.445312 16.09375 4.0625 Z M 16.09375 4.0625" transform="translate(239.404 270.744)"/></g></g></g><g fill="#FFF"><g><g><path d="M 15.8125 5.09375 C 11.382812 3.851562 8.289062 1.570312 6.53125 -1.75 C 4.769531 -5.082031 4.570312 -9.171875 5.9375 -14.015625 C 6.832031 -17.191406 8.144531 -19.765625 9.875 -21.734375 C 11.613281 -23.710938 13.640625 -25.015625 15.953125 -25.640625 C 18.265625 -26.265625 20.71875 -26.210938 23.3125 -25.484375 C 24.882812 -25.046875 26.34375 -24.140625 27.6875 -22.765625 C 28.21875 -22.265625 28.707031 -21.644531 29.15625 -20.90625 C 29.832031 -21.507812 30.472656 -21.941406 31.078125 -22.203125 C 31.679688 -22.429688 32.007812 -22.554688 32.0625 -22.578125 L 33.09375 -22.28125 L 30.890625 -14.390625 L 29.25 -14.859375 C 29.257812 -16.273438 29.054688 -17.628906 28.640625 -18.921875 C 28.265625 -20.160156 27.679688 -21.265625 26.890625 -22.234375 C 26.097656 -23.203125 25.066406 -23.863281 23.796875 -24.21875 C 21.890625 -24.75 19.992188 -24.082031 18.109375 -22.21875 C 16.234375 -20.363281 14.597656 -16.945312 13.203125 -11.96875 C 11.785156 -6.90625 11.457031 -3.09375 12.21875 -0.53125 C 12.976562 2.019531 14.546875 3.628906 16.921875 4.296875 C 18.234375 4.660156 19.578125 4.640625 20.953125 4.234375 C 22.335938 3.828125 23.566406 3.117188 24.640625 2.109375 C 25.710938 1.109375 26.4375 -0.0664062 26.8125 -1.421875 L 27.859375 -1.140625 C 27.421875 0.429688 26.582031 1.785156 25.34375 2.921875 C 24.113281 4.054688 22.660156 4.828125 20.984375 5.234375 C 19.304688 5.640625 17.582031 5.59375 15.8125 5.09375 Z M 15.8125 5.09375" transform="translate(265.9 276.335)"/></g></g></g><g fill="#FFF"><g><g><path d="M 7.34375 1.890625 L 9.96875 2.125 L 19.171875 -24.109375 L 14.5 -25.734375 C 13.925781 -24.085938 12.925781 -22.664062 11.5 -21.46875 C 10.894531 -20.96875 10.28125 -20.601562 9.65625 -20.375 L 8.4375 -20.796875 L 11 -28.109375 L 34.796875 -19.765625 L 32.234375 -12.453125 L 31.015625 -12.875 C 30.640625 -13.46875 30.375 -14.144531 30.21875 -14.90625 C 29.863281 -16.675781 29.984375 -18.410156 30.578125 -20.109375 L 25.90625 -21.75 L 16.703125 4.484375 L 18.921875 5.953125 L 18.703125 6.5625 L 7.125 2.5 Z M 7.34375 1.890625" transform="translate(291.99 283.635)"/></g></g></g><g fill="#35003D"><g><g><path d="M 46.546875 -59.828125 C 47.859375 -59.304688 49.15625 -58.125 50.4375 -56.28125 C 51.71875 -54.445312 52.648438 -52.675781 53.234375 -50.96875 L 24.796875 -30.3125 L 53.234375 -8.765625 C 52.648438 -7.117188 51.71875 -5.359375 50.4375 -3.484375 C 49.15625 -1.617188 47.859375 -0.425781 46.546875 0.09375 L 9.84375 -27.65625 L 9.84375 -32.875 Z M 46.546875 -59.828125" transform="translate(77.243 198.552)"/></g></g></g><g fill="#35003D"><g><g><path d="M 5.015625 0 C 4.359375 -0.789062 3.832031 -1.742188 3.4375 -2.859375 C 3.050781 -3.972656 2.859375 -5.117188 2.859375 -6.296875 C 5.015625 -6.296875 6.535156 -6.65625 7.421875 -7.375 C 8.316406 -8.101562 8.765625 -9.382812 8.765625 -11.21875 L 8.765625 -57.46875 C 8.765625 -59.300781 8.316406 -60.59375 7.421875 -61.34375 C 6.535156 -62.101562 5.015625 -62.484375 2.859375 -62.484375 C 2.859375 -63.597656 3.050781 -64.710938 3.4375 -65.828125 C 3.832031 -66.941406 4.359375 -67.894531 5.015625 -68.6875 L 28.9375 -68.6875 C 29.59375 -67.894531 30.113281 -66.941406 30.5 -65.828125 C 30.894531 -64.710938 31.09375 -63.597656 31.09375 -62.484375 C 28.925781 -62.484375 27.398438 -62.101562 26.515625 -61.34375 C 25.628906 -60.59375 25.1875 -59.300781 25.1875 -57.46875 L 25.1875 -11.21875 C 25.1875 -9.382812 25.628906 -8.101562 26.515625 -7.375 C 27.398438 -6.65625 28.925781 -6.296875 31.09375 -6.296875 C 31.09375 -5.117188 30.894531 -3.972656 30.5 -2.859375 C 30.113281 -1.742188 29.59375 -0.789062 28.9375 0 Z M 5.015625 0" transform="translate(139.132 198.552)"/></g></g></g><g fill="#35003D"><g><g><path d="M 58.65625 -69.875 C 59.695312 -67.570312 60.515625 -63.398438 61.109375 -57.359375 C 61.703125 -51.328125 62 -46.378906 62 -42.515625 C 61.144531 -42.179688 59.8125 -41.914062 58 -41.71875 C 56.195312 -41.519531 54.578125 -41.421875 53.140625 -41.421875 C 52.742188 -46.671875 52.101562 -50.707031 51.21875 -53.53125 C 50.332031 -56.351562 49.132812 -58.285156 47.625 -59.328125 C 46.113281 -60.378906 44.144531 -60.90625 41.71875 -60.90625 L 40.046875 -60.90625 L 40.046875 -11.609375 C 40.046875 -9.773438 40.898438 -8.429688 42.609375 -7.578125 C 44.316406 -6.722656 46.941406 -6.296875 50.484375 -6.296875 C 50.484375 -5.117188 50.285156 -3.972656 49.890625 -2.859375 C 49.492188 -1.742188 48.9375 -0.789062 48.21875 0 L 14.765625 0 C 14.109375 -0.789062 13.582031 -1.742188 13.1875 -2.859375 C 12.789062 -3.972656 12.59375 -5.117188 12.59375 -6.296875 C 20.007812 -6.296875 23.71875 -8.066406 23.71875 -11.609375 L 23.71875 -60.90625 L 21.546875 -60.90625 C 14.660156 -60.90625 10.691406 -54.410156 9.640625 -41.421875 C 5.046875 -41.617188 2.09375 -41.984375 0.78125 -42.515625 C 0.78125 -46.378906 1.078125 -51.328125 1.671875 -57.359375 C 2.265625 -63.398438 3.085938 -67.570312 4.140625 -69.875 C 7.148438 -69.875 9.835938 -69.476562 12.203125 -68.6875 L 50.578125 -68.6875 C 53.066406 -69.476562 55.757812 -69.875 58.65625 -69.875 Z M 58.65625 -69.875" transform="translate(173.078 198.552)"/></g></g></g><g fill="#35003D"><g><g><path d="M 53.234375 -27.65625 L 16.53125 0.09375 C 15.21875 -0.425781 13.921875 -1.617188 12.640625 -3.484375 C 11.359375 -5.359375 10.425781 -7.117188 9.84375 -8.765625 L 38.28125 -30.3125 L 9.84375 -50.96875 C 10.425781 -52.675781 11.359375 -54.445312 12.640625 -56.28125 C 13.921875 -58.125 15.21875 -59.304688 16.53125 -59.828125 L 53.234375 -32.875 Z M 53.234375 -27.65625" transform="translate(235.853 198.552)"/></g></g></g></svg>